<svg width="144" height="30" viewBox="0 0 144 30" fill="none" xmlns="http://www.w3.org/2000/svg">
<path d="M16.0813 3.74529C15.5996 2.9151 14.4007 2.9151 13.919 3.74529L10.5264 9.59193C10.2884 10.002 9.87712 10.2819 9.40829 10.3527L3.0504 11.313C1.98255 11.4743 1.60798 12.8225 2.43961 13.5115L7.17597 17.4356C7.6144 17.7988 7.82055 18.3718 7.71405 18.9311L6.47509 25.4375C6.27923 26.466 7.35897 27.2652 8.2854 26.7773L14.2722 23.6251C14.7278 23.3851 15.2724 23.3851 15.7281 23.6251L21.7149 26.7773C22.6413 27.2652 23.721 26.466 23.5252 25.4375L22.2862 18.9311C22.1797 18.3718 22.3859 17.7988 22.8243 17.4356L27.5607 13.5115C28.3923 12.8225 28.0177 11.4743 26.9499 11.313L20.592 10.3527C20.1231 10.2819 19.7118 10.002 19.4739 9.59193L16.0813 3.74529Z" fill="#FF8800"/>
<path d="M54.0813 3.74529C53.5996 2.9151 52.4007 2.9151 51.919 3.74529L48.5264 9.59193C48.2884 10.002 47.8771 10.2819 47.4083 10.3527L41.0504 11.313C39.9825 11.4743 39.608 12.8225 40.4396 13.5115L45.176 17.4356C45.6144 17.7988 45.8205 18.3718 45.714 18.9311L44.4751 25.4375C44.2792 26.466 45.359 27.2652 46.2854 26.7773L52.2722 23.6251C52.7278 23.3851 53.2724 23.3851 53.7281 23.6251L59.7149 26.7773C60.6413 27.2652 61.721 26.466 61.5252 25.4375L60.2862 18.9311C60.1797 18.3718 60.3859 17.7988 60.8243 17.4356L65.5607 13.5115C66.3923 12.8225 66.0177 11.4743 64.9499 11.313L58.592 10.3527C58.1231 10.2819 57.7118 10.002 57.4739 9.59193L54.0813 3.74529Z" fill="#FF8800"/>
<path d="M92.0813 3.74529C91.5996 2.9151 90.4007 2.9151 89.919 3.74529L86.5264 9.59193C86.2884 10.002 85.8771 10.2819 85.4083 10.3527L79.0504 11.313C77.9825 11.4743 77.608 12.8225 78.4396 13.5115L83.176 17.4356C83.6144 17.7988 83.8205 18.3718 83.714 18.9311L82.4751 25.4375C82.2792 26.466 83.359 27.2652 84.2854 26.7773L90.2722 23.6251C90.7278 23.3851 91.2724 23.3851 91.7281 23.6251L97.7149 26.7773C98.6413 27.2652 99.721 26.466 99.5252 25.4375L98.2862 18.9311C98.1797 18.3718 98.3859 17.7988 98.8243 17.4356L103.561 13.5115C104.392 12.8225 104.018 11.4743 102.95 11.313L96.592 10.3527C96.1231 10.2819 95.7118 10.002 95.4739 9.59193L92.0813 3.74529Z" fill="#FF8800"/>
<path d="M130.081 3.74529C129.6 2.9151 128.401 2.9151 127.919 3.74529L124.526 9.59193C124.288 10.002 123.877 10.2819 123.408 10.3527L117.05 11.313C115.983 11.4743 115.608 12.8225 116.44 13.5115L121.176 17.4356C121.614 17.7988 121.821 18.3718 121.714 18.9311L120.475 25.4375C120.279 26.466 121.359 27.2652 122.285 26.7773L128.272 23.6251C128.728 23.3851 129.272 23.3851 129.728 23.6251L135.715 26.7773C136.641 27.2652 137.721 26.466 137.525 25.4375L136.286 18.9311C136.18 18.3718 136.386 17.7988 136.824 17.4356L141.561 13.5115C142.392 12.8225 142.018 11.4743 140.95 11.313L134.592 10.3527C134.123 10.2819 133.712 10.002 133.474 9.59193L130.081 3.74529Z" fill="#FF8800"/>
</svg>
